<?xml version="1.0" encoding="UTF-8"?>
<svg id="Layer_1" xmlns="http://www.w3.org/2000/svg" version="1.1" viewBox="0 0 2000 2000">
  <!-- Generator: Adobe Illustrator 30.2.1, SVG Export Plug-In . SVG Version: 2.1.1 Build 1)  -->
  <defs>
    <style>
      .st0 {
        fill: #335140;
      }

      .st1 {
        fill: #071612;
      }

      .st2 {
        display: none;
      }

      .st2, .st3 {
        fill: #fcfcf8;
      }

      .st4 {
        fill: #090;
      }
    </style>
  </defs>
  <path class="st2" d="M220.12,1779.88V220.12h1559.76v1559.76H220.12ZM1723.24,999.76c-16.09-942.4-1417.9-942.26-1433.86.03,16.09,942.37,1417.9,942.23,1433.86-.03Z"/>
  <g>
    <path class="st1" d="M1679.62,942.24c-16.09,942.4-1417.9,942.26-1433.86-.03C261.85-.16,1663.66-.02,1679.62,942.24ZM911,443.62c65.94-111.14,199.17-131.97,316.82-113.66-184.39-81.25-407.02-73.99-582.03,28.91,104.44-17.15,190.31,15.49,265.2,84.76h.01ZM831.04,435.45c-103.69-73.15-297.32-42.93-290.97,111.11,83.05-74.11,173.82-117.53,290.97-111.11h0ZM1353.43,819.28l1.78,189.58,245.12,107.32c71.78-244.62-12-519.07-207.65-682.28-4.93,3.9-13.26,12.31-11.49,18.57,15.45,54.49,15.36,109.44-1.27,163.88,89-19.93,37.54,189.71-26.49,202.92h0ZM569.03,643.76c-106.53,167.34-181.83,345.79-220.27,539.1,23.67,57.59,53.05,109.88,91.44,158.86,21.07-279.22,103.83-855.33,467.47-856.15-243.74-92.27-426.23,164.61-528.66,351.67,19.56-90.32,65.81-169.19,118.63-242.12-9.94-34.27-9.34-65.96-5.08-104.56-159.46,148.03-225.51,394.54-171.4,606.45,57.5-166.58,130.4-323.24,247.88-453.25h-.01ZM1042.51,898.64c96.59,113.81,279.45,36.28,279.63-107.59,61.42.29,77.51-92.58,71.09-135.89-15.29-27.36-52.63,33.5-65.33,45.87l-5.78-88-.95-90.84c-.2-19.31-14.23-30.51-33.31-30.42-82.22.41-102.61,59.69-154.81,39.5-44.37-16.27-94.44-38.94-142.58-34.78,81.41,56.66,96.89,165.18,71.25,255.43-11.23,46.11-12.99,98.87-19.2,146.73h-.01ZM961.29,569.56c41.55,39.13,52.82,85.82,66.05,138.08,38.73-130.88-89.73-242.61-213.89-182.79-97.43,42.83-161.71,138-187.2,240.19,132.47,8.08,291.86-65.74,335.03-195.48h.01ZM989.16,1403.57c-53.77-99.57-175.68-126.42-151.62-335.89-50.19-25.31-92.68-62.85-111.19-118.3,53.27,47.58,116.16,83.58,187.95,87.51,87.71-96.75,109.48-300.31,53.54-417.34-47.96,117.22-174.32,185.27-293.64,196.7-80.25-76.51-94.65,69.83,1.65,77.19,16.72,210.49-130.49,323.21-194.53,495.99,126.14,131.73,307.58,213.07,491.39,207.79,38.26-61.91,52.48-126.92,16.45-193.65Z"/>
    <path class="st3" d="M569.03,643.76c-117.5,130.04-190.37,286.65-247.88,453.25-54.11-211.9,11.95-458.41,171.4-606.45-4.26,38.6-4.87,70.29,5.08,104.56-52.82,72.92-99.07,151.8-118.63,242.12,102.29-186.95,285.05-444.04,528.66-351.67-363.45.73-446.42,576.66-467.47,856.15-38.39-48.98-67.77-101.27-91.44-158.86,38.45-193.34,113.73-371.73,220.27-539.1h.01Z"/>
    <path class="st0" d="M1353.43,819.28c63.89-13.07,115.59-222.8,26.49-202.92,16.63-54.44,16.72-109.39,1.27-163.88-1.77-6.26,6.56-14.67,11.49-18.57,195.64,163.18,279.44,437.68,207.65,682.28l-245.12-107.32-1.78-189.58h0Z"/>
    <path class="st0" d="M911,443.62c-74.89-69.26-160.76-101.91-265.2-84.76,175.02-102.9,397.62-110.16,582.03-28.91-117.63-18.31-250.9,2.53-316.82,113.66h0Z"/>
    <path class="st3" d="M831.04,435.45c-117.16-6.42-207.92,36.99-290.97,111.11-6.32-154.05,187.26-184.24,290.97-111.11h0Z"/>
    <path class="st4" d="M1122.34,1178.25c-28.08,19.42-57.12,33.53-92.92,38.56-2.5-53.53-1.73-106.75-1.16-161.06,42.32,4.76,75.91,25.99,109.1,49.65,15.2,7.8,36.91,1.17,53.6.93,31.46-27.95,67.3-44.01,109.32-52.15l.53,162.37c-35.66-4.01-67.71-17.52-96.33-38.35-22.74-15.67-59.29-16.76-82.15.06h.01Z"/>
    <g>
      <path class="st3" d="M989.16,1403.57c36.04,66.73,21.81,131.74-16.45,193.65-183.81,5.28-365.25-76.06-491.39-207.79,64.05-173.05,211.04-284.63,194.53-495.99-96.4-7.45-81.8-153.69-1.65-77.19,119.31-11.43,245.68-79.47,293.64-196.7,57.82,130.28,34.19,295.66-44.7,412.25-9.75,8.97-24.34,4.68-35.86,2.54-61.27-12.71-114.22-42.25-160.94-84.96,18.51,55.45,61,92.99,111.19,118.3-24.06,209.47,97.85,236.32,151.62,335.89h.01Z"/>
      <path class="st3" d="M1482.07,1347c-35.63,45.27-76.94,86.02-121.31,119.95s-97.74,63.16-151.81,84.21c-26.62,10.37-53.89,19.07-81.57,26.16-10.73,2.75-79.93,9.45-83.5,16.29,135.29-259.64-261.94-366.27-104.22-481.1l59.91-47.21,20.87-100.93c96.84,75.05,206.14,63.62,290.54-21.69l3.16,97.66c42.26,20.84,116.51,51.06,160.64,70.2,19.93,8.46,39.63,15.33,59.28,25.35,16.49,8.42,35.86,11.76,50.9,23.82.37,8.75-6.88,15.53-8.77,22.82-21.96,58.28-54.53,114.16-94.13,164.46ZM1122.34,1178.25c23.07-16.85,59.18-15.76,82.15-.06,28.62,20.84,60.67,34.35,96.33,38.36l-.53-162.37c-42.02,8.14-77.86,24.2-109.32,52.15-16.69.24-38.4,6.87-53.6-.93-33.19-23.66-66.79-44.89-109.1-49.65-.57,54.31-1.34,107.53,1.16,161.06,35.79-5.03,64.83-19.13,92.92-38.56h-.01Z"/>
      <path class="st3" d="M1042.51,898.64c6.22-48,7.95-100.53,19.2-146.73,25.63-90.28,10.17-198.75-71.25-255.43,48.07-4.17,98.22,18.52,142.58,34.78,52.19,20.19,72.59-39.08,154.81-39.5,19.08-.1,33.11,11.11,33.31,30.42l.95,90.84,5.78,88c12.63-12.31,50.06-73.24,65.33-45.88,6.41,43.31-9.68,136.18-71.09,135.89-.2,143.9-183.04,221.39-279.63,107.59v.02Z"/>
      <path class="st3" d="M961.29,569.56c-43.17,129.74-202.56,203.56-335.03,195.48,25.49-102.19,89.77-197.36,187.21-240.2,124.12-59.82,252.66,51.97,213.88,182.8-13.23-52.25-24.5-98.96-66.05-138.08h-.01Z"/>
    </g>
  </g>
</svg>