<?xml version="1.0" encoding="UTF-8"?>
<svg id="Layer_1" xmlns="http://www.w3.org/2000/svg" version="1.1" viewBox="0 0 2000 2000">
  <!-- Generator: Adobe Illustrator 30.2.1, SVG Export Plug-In . SVG Version: 2.1.1 Build 1)  -->
  <defs>
    <style>
      .st0 {
        fill: #3b6341;
      }

      .st1 {
        display: none;
        fill: #fefefe;
      }

      .st2 {
        fill: #3b6341;
      }
    </style>
  </defs>
  <path class="st1" d="M138.4,1384.27V349.68h1702.3v1034.59H138.4ZM256.6,536.62c-8.83,16.36-17.75,35.74-17.74,56.96l.39,561.35c.02,35.67,17.05,67.51,37.93,94.21,27.38,35.03,67.31,55.23,111.22,60.69,31.95,3.97,63.56-3.46,91.53-18.27l63.82-33.78,389.47-206.55c-1.51-5.21-6.36-4.13-10.48-5.47-3.02-2.96-6.08-5.79-10.43-8.15l-52.12-28.24c-7.04-3.81-15.65-7.23-24.19-3.46-3.11,1.37-6.32,2.83-10.29,4.98l-127.33,69.04-74.46,38.83-71.85,38.46-70.65,36.7c-15.17,7.88-31.06,15.82-46.13,24.04-11.1,6.05-29.07,5.34-41.07,4.35-39.85-3.27-69.95-38.37-70.01-85.62-.21-168.48-1.13-358.24.48-534.21.02-2.44-1.22-7.53,0-9.7,5.11-9.14,6.71-21.34,12.58-29.26,11.19-15.08,24.34-27.76,42.65-33.23,18.25-5.45,40.6-5.67,57.66,3.46l85.01,45.47,192.33,102.19,12.33,6.5,158.61,85.86-96.77,52.58-89.82-46.57c-22.96-14.6-47.14-24.28-70.5-37.45l-55.24-31.16c-33.23-18.74-71.13-20.95-104.18-1.65-33.39,19.5-52.18,53.42-52,92.53l.73,161.03c.12,26.6,14.97,49.54,34.75,67.13,28.36,25.22,72.59,34.16,107.76,15.45l218.36-116.13c7.52-4,12.51-4.39,20-.16l36.25,20.44,170.17,90.04,364.72,194.03,94.2,50.2c32.84,17.5,67.01,30.36,104.81,26.15,44.6-4.98,84.7-25.66,112.57-60.93,22.07-27.94,38.48-60.99,38.47-97.85l-.06-554.09c0-18.54-5.32-35.17-11.56-51.01-17-43.13-49.84-77.22-92.57-94.07-42.45-16.74-85.94-16.98-127.77,1.5-19.09,8.43-36.55,18.92-55.18,28.68l-32.77,17.17-158.89,84.38-184.47,99.18-34.19,18.77,90.65,48.77,162.92-86.67,228.69-122.36c18.73-10.02,35.04-17.18,57.9-14.76,41.72,4.41,72.31,39.25,72.29,81.21l-.25,533.9c-.01,24.64-10.61,47.78-28.34,63.07-24.84,21.42-59.59,23.19-88.52,9.39-10.67-5.09-20.06-10.26-30.29-15.69l-62.27-33.07-69.16-36.97-246.44-130.52c-12.74-6.75-24.66-11.43-36.55-20.81l88.28-48.54c6.85-3.77,11.91-2.73,18.46.76l214.48,114.41c44.14,23.55,100.44,7.35,127.36-30.81,10.15-14.39,19.02-30.96,19.01-48.66l-.15-171.68c-.04-50.39-40.8-88.9-89.07-96.12-22.12-3.31-41.98,1.96-61.21,12.4l-56.87,30.85-163.22,86.4-81.04-42.58-371.87-199.3-214.09-114.1c-46.19-24.62-84.2-38.99-137.52-25.38-48.96,12.5-88.73,44.55-109.25,91.54Z"/>
  <g>
    <path class="st0" d="M324.66,602.49c-9.31.94-10.15-20.47-5.56-29.22-7.49,1.86-3.56,10.58-8.43,12.77-14.55-2.24.27-12.39-10.05-31.46-4.13,1.33-8.61,3.53-10.38,1.66l-5.85-6.19c-2.9-3.07-10.1,4.86-15,1.91-1.88-1.13-2.24-5.28-4.02-5.47-2.44-.25-4.71.82-8.49,1.08-1.43-3.74.08-7.47-.27-10.95,20.52-47,60.29-79.05,109.25-91.54,53.32-13.61,91.32.76,137.52,25.38l214.09,114.1,371.87,199.3,81.04,42.58,163.22-86.4,56.87-30.85c19.24-10.43,39.09-15.7,61.21-12.4,48.27,7.21,89.02,45.72,89.07,96.12l.15,171.68c.02,17.7-8.86,34.27-19.01,48.66-26.93,38.17-83.22,54.36-127.36,30.81l-214.48-114.41c-6.55-3.49-11.61-4.53-18.46-.76l-88.28,48.54c11.89,9.38,23.81,14.06,36.55,20.81l246.44,130.52,69.16,36.97,62.27,33.07c10.24,5.44,19.62,10.6,30.29,15.69,28.93,13.8,63.68,12.03,88.52-9.39,17.73-15.29,28.33-38.43,28.34-63.07l.25-533.9c.02-41.96-30.57-76.8-72.29-81.21-22.86-2.42-39.16,4.74-57.9,14.76l-228.69,122.36-162.92,86.67-90.65-48.77,34.19-18.77,184.47-99.18,158.89-84.38,32.77-17.17c18.63-9.76,36.09-20.25,55.18-28.68,41.84-18.48,85.32-18.24,127.77-1.5,42.73,16.85,75.57,50.94,92.57,94.07,6.25,15.84,11.56,32.47,11.56,51.01l.06,554.09c0,36.86-16.4,69.91-38.47,97.85-27.87,35.28-67.97,55.96-112.57,60.93-37.8,4.22-71.97-8.65-104.81-26.15l-94.2-50.2-364.72-194.03-170.17-90.04-36.25-20.44c-7.49-4.22-12.48-3.83-20,.16l-218.36,116.13c-35.18,18.71-79.4,9.77-107.76-15.45-19.78-17.59-34.62-40.53-34.75-67.13l-.73-161.03c-.18-39.11,18.61-73.03,52-92.53,33.06-19.3,70.95-17.1,104.18,1.65l55.24,31.16c23.36,13.17,47.53,22.86,70.5,37.45l89.82,46.57,96.77-52.58-158.61-85.86-12.33-6.5-192.33-102.19-85.01-45.47c-17.07-9.13-39.41-8.92-57.66-3.46-18.32,5.47-31.46,18.15-42.65,33.23-5.88,7.92-7.48,20.12-12.58,29.26-1.21,2.17.03,7.27,0,9.7ZM645.8,902.95c16.98-8.87,33.03-16.45,49.53-27.51l-124.95-67.54c-16.39-8.86-31.1-17.92-48.06-25.3-8.53-3.71-18.71,7.13-18.72,16.29l-.15,154.58c0,5.68,4.63,10.18,7.67,12.33,3.93,2.77,10.42,2.05,14.6-.13l120.08-62.71ZM1437.88,967.58c4.98,2.56,11.65-1.96,13.96-3.86,2.02-1.67,3.9-5.88,3.89-9.99l-.23-155.12c0-5.13-5.61-12.12-9.13-14.23-6.99-4.2-13.78.1-19.78,3.3l-134.58,71.79c-10.91,5.82-20.97,10.32-29.37,16.62l97.22,51.31,78.01,40.18ZM990.47,924.8l87.15-48.26-90.17-49.75c-6.12-3.38-11.85-4.37-17.7.38l-87.49,47.9c11.31,9.91,23.57,13.63,35.23,20.15l53.81,30.07c7.4,4.14,12.14,3.41,19.17-.48Z"/>
    <path class="st1" d="M645.8,902.95l-120.08,62.71c-4.18,2.18-10.67,2.9-14.6.13-3.05-2.15-7.68-6.64-7.67-12.33l.15-154.58c0-9.16,10.19-19.99,18.72-16.29,16.96,7.37,31.67,16.44,48.06,25.3l124.95,67.54c-16.51,11.06-32.55,18.64-49.53,27.51Z"/>
    <path class="st1" d="M1437.88,967.58l-78.01-40.18-97.22-51.31c8.4-6.3,18.46-10.79,29.37-16.62l134.58-71.79c6-3.2,12.79-7.5,19.78-3.3,3.52,2.12,9.12,9.1,9.13,14.23l.23,155.12c0,4.11-1.87,8.32-3.89,9.99-2.31,1.9-8.99,6.43-13.96,3.86Z"/>
    <path class="st1" d="M990.47,924.8c-7.03,3.89-11.77,4.61-19.17.48l-53.81-30.07c-11.66-6.52-23.92-10.24-35.23-20.15l87.49-47.9c5.85-4.75,11.58-3.76,17.7-.38l90.17,49.75-87.15,48.26Z"/>
    <g>
      <path class="st2" d="M324.66,602.49c-1.62,175.97-.69,365.73-.48,534.21.06,47.25,30.16,82.35,70.01,85.62,12,.98,29.97,1.7,41.07-4.35-2.3,11.28,18.87-4.8,22.5-4.91l11.12-.35c1.11-14.35,18.59-6.91,12.51-18.77l70.65-36.7c-2.35,7.35,15.6-4.7,23.26-4.68,5.9.01,9.74-3.22,16.55-2.21-1.09-4.22-.76-6.68,1.1-8.78,3.46-3.92,6.62-3.74,10.74-5.22,2.45-.88,22.67-15.05,20.21-17.57l74.46-38.83c3.8,11.08,7.58-6.69,19.07-5.01,2.3.34,24.05-3.24,22.28-11.39,4.03,2.56,5.81,4.41,8.97,3.32s4.43-2.83,6.13-5.71c11.73-19.92,39.28-23.57,57.1-36.84.65-.48,3.44.89,3.77-.15,2.48-7.75,5.32-1.19,8.45-6.48,1.16-1.96,1.12-4.58,1.56-6.78,3.97-2.15,7.18-3.61,10.29-4.98.5,9.43,8.59-5.13,34.83,16.62,1.54,1.27,4.46.66,3.22,3.17-.36.72-1.75,2.23-2.05,3.27,6.64,7.65,18.27,7.72,27.96,10.22,4.87,1.25,25.94,13.17,22.77,6.58,4.12,1.35,8.97.27,10.48,5.47l-389.47,206.55-63.82,33.78c-27.97,14.81-59.59,22.24-91.53,18.27-43.91-5.46-83.83-25.67-111.22-60.69-20.87-26.7-37.9-58.54-37.93-94.21l-.39-561.35c-.01-21.22,8.91-40.6,17.74-56.96.35,3.48-1.16,7.22.27,10.95,3.78-.26,6.05-1.33,8.49-1.08,1.77.19,2.14,4.34,4.02,5.47,4.91,2.95,12.1-4.99,15-1.91l5.85,6.19c1.77,1.87,6.25-.33,10.38-1.66,10.33,19.07-4.49,29.22,10.05,31.46,4.87-2.19.94-10.9,8.43-12.77-4.59,8.75-3.74,30.16,5.56,29.22ZM497.55,1191.08c0-.51-.41-.92-.92-.92s-.92.41-.92.92.41.92.92.92.92-.41.92-.92ZM492.57,1196.07c3.06-2.29.73-5.8-2.38-3.21-1.36,1.61-3.24.62-3.66,1.88-.36,1.09-.05,2.21.96,2.77s1.97-.78,5.08-1.45Z"/>
      <path class="st0" d="M698.36,1079.94l127.33-69.04c-.44,2.2-.4,4.82-1.56,6.78-3.14,5.29-5.98-1.28-8.45,6.48-.33,1.05-3.12-.33-3.77.15-17.82,13.28-45.38,16.92-57.1,36.84-1.7,2.88-2.98,4.62-6.13,5.71s-4.94-.76-8.97-3.32c1.77,8.15-19.98,11.72-22.28,11.39-11.49-1.68-15.26,16.09-19.07,5.01Z"/>
      <path class="st0" d="M922.72,1045.77c3.17,6.59-17.9-5.33-22.77-6.58-9.69-2.49-21.32-2.56-27.96-10.22.29-1.04,1.69-2.55,2.05-3.27,1.24-2.51-1.68-1.89-3.22-3.17-26.24-21.75-34.34-7.19-34.83-16.62,8.53-3.77,17.15-.35,24.19,3.46l52.12,28.24c4.35,2.36,7.41,5.19,10.43,8.15Z"/>
      <path class="st0" d="M623.9,1118.77c2.46,2.52-17.76,16.69-20.21,17.57-4.13,1.48-7.29,1.3-10.74,5.22-1.86,2.1-2.18,4.56-1.1,8.78-6.8-1.01-10.65,2.22-16.55,2.21-7.66-.02-25.6,12.03-23.26,4.68l71.85-38.46Z"/>
      <path class="st0" d="M435.26,1217.97c15.07-8.22,30.96-16.15,46.13-24.04,6.08,11.86-11.4,4.42-12.51,18.77l-11.12.35c-3.62.11-24.8,16.19-22.5,4.91Z"/>
      <path class="st0" d="M492.57,1196.07c-3.11.67-4.04,2.04-5.08,1.45s-1.32-1.69-.96-2.77c.42-1.26,2.3-.27,3.66-1.88,3.11-2.59,5.44.92,2.38,3.21Z"/>
      <circle class="st0" cx="496.64" cy="1191.08" r=".92"/>
    </g>
  </g>
</svg>