<?xml version="1.0" encoding="UTF-8"?>
<svg id="Layer_1" xmlns="http://www.w3.org/2000/svg" version="1.1" viewBox="0 0 2000 2000">
  <!-- Generator: Adobe Illustrator 30.2.1, SVG Export Plug-In . SVG Version: 2.1.1 Build 1)  -->
  <defs>
    <style>
      .st0 {
        fill: #e4eedd;
      }

      .st1 {
        fill: #b0d38e;
      }

      .st2 {
        fill: #87bc64;
      }

      .st3 {
        fill: #96bf74;
      }

      .st4 {
        fill: #89bd65;
      }

      .st5 {
        fill: #f7f9f6;
      }

      .st6 {
        fill: #82b55c;
      }

      .st7 {
        fill: #fdfefd;
      }

      .st8 {
        fill: #68a54c;
      }

      .st9 {
        fill: #84bb60;
      }

      .st10 {
        fill: #abd28b;
      }

      .st11 {
        fill: #9bc579;
      }

      .st12 {
        fill: #fefeff;
      }

      .st13 {
        fill: #69aa4f;
      }

      .st14 {
        fill: #3b6341;
      }

      .st15 {
        fill: #f6f9f5;
      }

      .st16 {
        fill: #71b055;
      }

      .st17 {
        fill: #c2daae;
      }

      .st18 {
        fill: #6ea950;
      }

      .st19 {
        fill: #7fb85c;
      }

      .st20 {
        fill: #71b056;
      }

      .st21 {
        fill: #c6ddb3;
      }

      .st22 {
        fill: #f5f9f2;
      }

      .st23 {
        fill: #9ec67c;
      }

      .st24 {
        fill: #9dc57b;
      }

      .st25 {
        fill: #9cc27e;
      }

      .st26 {
        fill: #a0cc7c;
      }

      .st27 {
        fill: #8fc06c;
      }

      .st28 {
        fill: #bbd6a5;
      }

      .st29 {
        fill: #6aab4f;
      }

      .st30 {
        fill: #e3eedc;
      }

      .st31 {
        fill: #7bb454;
      }

      .st32 {
        fill: #f4f8f2;
      }

      .st33 {
        fill: #b9d4a1;
      }

      .st34 {
        fill: #63a34c;
      }
    </style>
  </defs>
  <g id="Generative_Object">
    <g>
      <path class="st4" d="M884.31,895.84c-4.12,2.13-8.95,4.79-12.49,7.79-17.95-17.02-39.16-30.01-59.73-43.57-78.12-51.53-179.55-88.96-272.76-103.26-40.15-6.16-80.06-8.95-119.61-5.28-4.7.44-9.94-1.47-16.48.29-50.32,102.6-53.64,245.71-46.97,357.25-1.08-.59-1.71.95-2.73,1.14l-9.01-23.77c-1.61-4.24-1.71-8.75-3.86-12.21-1.67-44.45-2.13-88.84,1.53-134.13,5.36-66.17,16.74-132.81,46.13-192.84,2.43-4.97,5.61-8.82,10.79-9.42,89.75-10.22,185.66,6.5,271.01,36.56,51.83,18.26,100.83,41.12,146.97,70.51,24.24,15.44,46.98,31.65,67.2,50.95Z"/>
      <path class="st31" d="M353.54,1110.19c1.02-.18,1.65-1.73,2.73-1.14.31,5.26.2,11.41,1.96,16.85,12.35,38.22,40.08,68.09,76.84,83.96,22.24,9.6,44.91,14.33,69.33,15.74,89.56,5.18,181.71-26.52,258.15-72.15,33.23-19.83,63.55-42.2,93.42-65.5l14.64,18.24c-25.24,22.07-50.14,42.73-78.62,60.29-46.32,28.57-95.63,48.56-146.18,65.36,34.63-5.66,65.44-17.76,98.06-30.94,47.13-19.04,100.98-47.11,140.53-80.26,3.47,3.05,6.02,5.38,8.7,8.64-6.03,7.46-12.05,13.67-19.06,20.5-40.9,39.86-87.53,73.23-138.9,99.08-97.45,49.03-222.92,81.38-332.02,68.15-26.96-62.21-34.88-112.77-44.04-177.68-.52-3.7-1.04-7.45-1.67-10.41l-2.98-13.88-.89-4.85Z"/>
      <path class="st19" d="M828.76,1035.93c1.2,3.76,2.92,7.29,3.73,11.82l-78.95,10.89-148.8,23.26c-39.7,6.2-126.22,23.4-160.93,38.85-8.61,3.83-23.01,14.08-19.12,22.6,4.61,10.1,27.2,8.81,36.9,7.54,29.78-3.88,58.26-9.74,87.82-16.07l65.46-14.03c-.63,4.38,1.24,8.68,2.5,13.17l3.58,12.78c4.53-.79,12.55-4.24,11.96-1.66-41.34,11.67-123.56,29.45-167.01,30.3-8.94.18-18.82,1.46-26.94-1.05-20.08-6.2-44.15-16.98-56.08-37.23-10.01-16.98-6.94-37.14,7.05-50.82,22.69-22.18,67.65-31.23,98.66-33.23l122.97-7.92,217.2-9.19Z"/>
      <path class="st9" d="M829.19,961.35l-3.87,15-177.7-54.72c-37.75-11.63-197.35-53.9-222.44-19.01-1.05-8.08,1.97-15.49,9.19-21.54,31.85-26.72,119.44-8.81,157.95.7,33.53,8.28,65.05,17.89,98.16,28.25,47.66,14.91,93.18,32.73,138.7,51.32Z"/>
      <path class="st23" d="M794.13,1084.47c-.78,13.54,3.1,2.72.06,14.27l-60.92,18.02-100.36,28.32c.6-2.59-7.42.86-11.96,1.66l-3.58-12.78c-1.26-4.48-3.12-8.79-2.5-13.17,59.58-12.77,119.33-25.23,179.26-36.32Z"/>
      <path class="st20" d="M859.61,913.96c-2.82,2.39-4.82,7.44-9.22,10.41-27.02-13.98-54.43-26.01-83.14-36.54-9.25-3.39-17.32-6.77-27.42-7.49,11.18,9.34,22.74,15.9,34.41,23.42,20.22,13.03,39.63,26.33,57.87,42.3,1.25,1.1,2.55,1.84,2.52,3.5-.02,1.27-1.67,2.1-2.01,2.98-31.9-22.76-65.73-43.12-100.43-63.5-22.04-12.95-43.6-23.48-66.39-34.12,15.17-.56,28.85,1.92,43.98,4.63,53.06,9.51,104.07,27.15,149.84,54.39Z"/>
      <path class="st7" d="M812.09,860.05c.02.3-.59.52-1.11.41l-42.69-17.42c-96.81-39.5-227.26-77.06-333-73.47-25.91,49.58-40.31,96.29-53.51,150.7-4.09-50.54,10.51-123.51,37.73-166.76.45-.72.54-1.52.2-1.99,39.56-3.67,79.46-.88,119.61,5.28,93.22,14.3,194.64,51.73,272.76,103.26Z"/>
      <path class="st0" d="M438.97,1174.33c8.12,2.51,18,1.23,26.94,1.05,43.45-.85,125.67-18.64,167.01-30.3l100.36-28.32,60.92-18.02c5.43-1.61,10.79-3.58,17.21-4.03-22.54,11.24-45.3,20.47-69.52,28.92-65.4,22.82-144.73,44.76-213.04,53.93-26.89,3.61-66.75,7.42-92.31-2.04.44-1.37,1.68-.61,2.43-1.19Z"/>
      <g>
        <path class="st17" d="M419.72,751.51c.34.47.25,1.27-.2,1.99-27.22,43.24-41.83,116.21-37.73,166.76,13.2-54.4,27.61-101.11,53.51-150.7,105.74-3.59,236.19,33.97,333,73.47l42.69,17.42c.51.11,1.12-.11,1.11-.41,20.56,13.56,41.78,26.55,59.73,43.57l-12.21,10.34c-45.76-27.25-96.78-44.88-149.84-54.39-15.13-2.71-28.8-5.19-43.98-4.63,22.79,10.64,44.35,21.17,66.39,34.12,34.7,20.38,68.53,40.74,100.43,63.5l-3.43,8.79c-45.52-18.59-91.04-36.41-138.7-51.32-33.11-10.36-64.63-19.97-98.16-28.25-38.51-9.51-126.1-27.41-157.95-.7-7.22,6.06-10.24,13.46-9.19,21.54.61,4.73-.85,9.04,4.07,13.63,5.28,4.93,11.57,9.32,18.75,12.59,37.27,17.02,100.28,26.2,142.01,32.9l83.5,13.41c51.14,8.21,100.13,20.06,149.83,34.08.89,9.26,2.7,18.11,5.43,26.69l-217.2,9.19-122.97,7.92c-31.01,2-75.96,11.05-98.66,33.23-13.99,13.68-17.06,33.84-7.05,50.82,11.93,20.25,36,31.03,56.08,37.23-.75.59-1.99-.17-2.43,1.19,25.56,9.46,65.42,5.65,92.31,2.04,68.31-9.18,147.64-31.12,213.04-53.93,24.22-8.45,46.98-17.69,69.52-28.92-6.42.45-11.78,2.43-17.21,4.03,3.04-11.54-.84-.72-.06-14.27l52.92-9.79c3.65,4.07,5.72,9.29,8.91,13.27-29.87,23.3-60.19,45.67-93.42,65.5-76.44,45.62-168.59,77.33-258.15,72.15-24.42-1.41-47.08-6.14-69.33-15.74-36.77-15.87-64.49-45.74-76.84-83.96-1.76-5.44-1.65-11.59-1.96-16.85-6.67-111.54-3.35-254.64,46.97-357.25,6.54-1.76,11.77.15,16.48-.29Z"/>
        <path class="st32" d="M755.05,1009.01c-25.17-.92-47.94-3.99-72.58-7.07-66.05-8.24-130.86-14.44-197.22-19.41-30.55-2.29-59.67-5.55-90.49-12.12,29.61-4.93,57.99-3.21,87.1.48l184.8,23.45c30.28,3.84,59.26,7.42,88.39,14.66Z"/>
      </g>
    </g>
    <g>
      <g>
        <path class="st2" d="M1667.44,1069.75c-.59.16-1.15-.21-1.19-.61-.05-.59.55-1.76-.65-2.72-1.82,4.03,1.01,8.64-.52,13.37-4.14,12.77-8.58,24.69-13.41,36.2-.78-.1-1.47-.89-1.34-2.28,2.45-26.24,2.79-51.94,3.22-77.66,1.51-90.55-8.33-200.58-48.8-283.86-5.99-2.47-12.2-.23-17.52-.71-43.58-3.94-87.9-.07-131.95,7.6-59.93,10.44-117.04,28.84-172.17,53.56-31.1,13.94-60.25,30.23-88.41,48.46-20.46,13.25-40.53,27.35-58.45,43.77-4.07-3.38-9.19-6.51-13.86-8.86,28.9-23.36,58.59-45.55,91.41-64.44,74.43-42.85,155.45-72.77,240.3-87.75,50.63-8.94,101.36-11.47,152.04-6.21,5.66.59,9.71,2.89,12.53,8.53,46.96,93.79,52.4,221.18,48.76,323.63Z"/>
        <path class="st21" d="M1653.57,1036.04c-1.63-.91-1.29,2.9-2.21,2.91-9.35.09-19.5.98-28.64-.16-4.42-.55-8.23-.39-12.92-.01-.93-1.44-1.01-1.7-1.43-2.08,2.13,1.95-21.38-2.7-22.4-2.86-5.19-.79-10.24.78-15.63-.33-3.78-.78-7.53.98-11.44,1.43-8.47.96-30.47-1.02-30.47-1.03-2.33.72-6.03,1.87-8.68.71-3.86-1.69-6.21,1.25-9.14,1.37-6.1.26-17.87.17-24.71.24-4.02.05-7.15-3.72-10.57-.57-2.56,2.36-10.15-2.98-16.26-.52-7.28,2.93-13.78-1.69-19.5-.19-5.45,1.42-9.82-1.52-15.46-2.05l-16.13-1.5c-5.34-.5-9.68-.62-14.87-.4-6.76.28-13.26-1.62-20.21.93-2.98,1.09-7.06-1.07-9.95-1.19-31.75-1.34-25.76-7.27-54.74-12.24-17.33-2.97-15.99,6.93-28.11-1.38-3.74-2.56-5.47-4.97-6.41-9.41l65.53-7.31c58.63-6.54,115.83-12.66,174.66-17.31,30.88-2.44,60.53-5.16,91.18-12.26-29.68-5.52-57.8-3.45-86.68.31l-176.77,23.02c-30.48,3.97-59.9,8.12-89.74,14.21,3.87,1.65,7.31.45,10.58.66-1.47,6.48,3.97,3.16,2.04,10.32-.83,3.1-15.15,5.35-14.7,14.49,2.01.94,2.96,1.6,2.47,2.65-.8,1.73-12.08-.36-12.36-.39-8.67-.74-16.8.62-25.14-1.11.23-3.14.35-6.36-1.07-9.57-3.1-7.05-15.82.45-16.7,2.16-1.14,2.21-2.34,5.59-.16,7.3,1.13.88,2.51.61,2.18,1.85-6.65-.29-13.49,0-20.12.05,1.64-8.75,4.49-17.26,5.19-27.1,53.8-15.72,108.06-27.85,163.93-36.63l70.12-11.02c38.96-6.12,76.71-12.74,114.5-23.31,14.38-4.02,27.89-9.41,39.73-17.76,6.84-4.83,9.2-10.21,9.65-17.03,2.54-38.29-57.27-38.06-85.03-35.65-59.11,5.12-174.41,37.55-230.13,59.07l-88.1,34.03c-1.58-2.99-4.06-6.2-4.34-9.85l54.94-34.8c36.62-23.19,73.97-44.24,113.29-61.89-12.61-.08-23.85,1.44-36.34,3.6-53.97,9.35-109.83,27.7-156.92,55.49-.73.43-1.46.1-2.06.13l-11.06-9.19c17.92-16.42,37.99-30.52,58.45-43.77.1,1.65,1.04.72,2.02.32l44.62-17.98c100.36-40.43,221.82-77.11,330.68-73.74,25.93,49.54,39.93,97.49,52.62,150.67,3.84-35.31-3.42-78.76-13.44-113.41-5.83-20.15-14.15-37.92-23.97-55.49,5.33.48,11.53-1.76,17.52.71,40.47,83.28,50.31,193.31,48.8,283.86Z"/>
        <path class="st34" d="M1647.76,1131.77c-4.12,56.47-19.38,132.12-43.7,185.11-34.7,4.41-68.69,4.28-103.71.37-96.62-10.78-198.9-45.76-280.57-98.81-39.03-25.35-73.92-55.26-105.92-89,2.46-3.42,5.16-5.73,8.84-8.41,17.25,13.67,34.34,25.78,53.17,36.63,52.91,30.47,126.45,64.69,186.41,74.39-53.45-16.92-105.26-38.5-153.13-69.44-26-16.81-49.15-36.09-72.61-56.55l15.42-17.94c93.98,76.77,211.72,139.58,337.12,138.13,67.08-.78,127.17-25.24,155.47-89.21.96-2.16,1.67-4.24,3.21-5.28Z"/>
        <path class="st33" d="M1273.7,1007.72c.94,4.44,2.67,6.84,6.41,9.41,12.12,8.31,10.79-1.59,28.11,1.38,28.98,4.96,22.99,10.89,54.74,12.24,2.9.12,6.97,2.28,9.95,1.19,6.96-2.55,13.45-.65,20.21-.93,5.19-.22,9.52-.09,14.87.4l16.13,1.5c5.64.52,10.01,3.47,15.46,2.05,5.72-1.49,12.22,3.13,19.5.19,6.1-2.46,13.69,2.88,16.26.52,3.41-3.14,6.54.62,10.57.57,6.84-.08,18.61.01,24.71-.24,2.93-.12,5.28-3.07,9.14-1.37,2.65,1.16,6.35,0,8.68-.71,0,0,22,1.99,30.47,1.03,3.91-.44,7.66-2.21,11.44-1.43,5.39,1.11,10.44-.46,15.63.33,1.02.16,24.53,4.81,22.4,2.86.42.38.5.64,1.43,2.08,4.69-.38,8.5-.54,12.92.01,9.14,1.14,19.29.25,28.64.16.92,0,.58-3.82,2.21-2.91-.43,25.72-.78,51.42-3.22,77.66-.13,1.4.56,2.18,1.34,2.28-2.02,4.82-3.54,10.51-3.92,15.79-1.53,1.04-2.25,3.11-3.21,5.28-28.3,63.97-88.39,88.43-155.47,89.21-125.4,1.45-243.14-61.35-337.12-138.13,3.02-3.51,4.72-9.97,8.83-12.76,19.25,1.65,37.4,7.47,55.54,10.29.53,3.78-1.84,6.8-1.83,11.41l9.67,3.49c1.26-.37.95.65.92,1.47-9.46-2.84-18.92-5.52-29.57-7.37,28.02,13.33,56.24,24.4,85.79,34.25,37.57,12.52,74.73,23.63,113.29,32.83,45.35,10.82,131.92,28.74,175.13,14.51.93-.7.4-1.81-.46-1.92,19.09-7.82,38.87-13.84,52.89-34.5,11.91-17.56,9.26-39.38-5.95-53.94-22.31-21.34-67.71-30.83-97.78-32.75l-119.81-7.68-152.98-7.14c-8.02-.37-14.94-.19-22.47-.51l-24.13-1.04c.33-1.24-1.05-.97-2.18-1.85-2.19-1.71-.99-5.09.16-7.3.89-1.71,13.6-9.21,16.7-2.16,1.41,3.21,1.3,6.43,1.07,9.57,8.34,1.73,16.47.37,25.14,1.11.28.02,11.56,2.12,12.36.39.49-1.05-.46-1.71-2.47-2.65-.45-9.14,13.86-11.39,14.7-14.49,1.93-7.16-3.52-3.84-2.04-10.32,3.5.22,7.13-1.49,11.24-1.31Z"/>
        <path class="st19" d="M1199.03,1036.73l24.13,1.04c7.53.33,14.46.14,22.47.51l152.98,7.14,119.81,7.68c30.06,1.93,75.46,11.41,97.78,32.75,15.22,14.56,17.87,36.38,5.95,53.94-14.02,20.66-33.8,26.69-52.89,34.5-5.14,2.1-12.08,1.41-18.02,1.46-46.53.42-138.49-19.03-182.79-31.83-.88-2.65,9.25,1.25,13.04,1.69l4.93-26.08,80.17,17.19c25.47,5.46,49.81,10.54,75.5,13.81,10.03,1.28,34.5,2.89,38.98-7.59,4.03-9.43-11.49-19.47-20.23-23.26-28.96-12.56-95.83-27.71-128.36-32.82l-176.77-27.8-80.88-11.76c.45-4.23,2.82-7.53,4.06-10.53,6.63-.05,13.47-.33,20.12-.05Z"/>
        <path class="st9" d="M1582.02,903.91c-6-12.15-30.26-14.52-43.27-14.88-44.65-1.26-143.43,22.41-188.37,36.19l-167.3,51.29c-2.58-4.94-3.23-10.25-4.31-15.15l88.1-34.03c55.72-21.52,171.02-53.96,230.13-59.07,27.75-2.4,87.57-2.64,85.03,35.65Z"/>
        <path class="st24" d="M1386.42,1119.54l-4.93,26.08c-3.79-.44-13.92-4.34-13.04-1.69l-99.71-28.82-43.65-13.11c.03-.81.33-1.84-.92-1.47l-9.67-3.49c-.01-4.6,2.35-7.63,1.83-11.41,57.03,8.84,113.59,21.78,170.1,33.89Z"/>
        <path class="st16" d="M1174.42,951.51c-.49-.8-1.75-1.31-2.06-2.05-.63-1.5.2-3.08,1.68-4.27,18.84-15.1,38.43-27.95,58.9-41.15,11-7.09,21.27-12.96,31.63-21.98-10.75,1.09-19.52,4.83-29.13,8.29-26.82,9.68-52.39,21.31-77.77,34.61l-10.35-10.93c.61-.03,1.33.3,2.06-.13,47.09-27.79,102.96-46.14,156.92-55.49,12.48-2.16,23.72-3.68,36.34-3.6-39.31,17.65-76.67,38.69-113.29,61.89l-54.94,34.8Z"/>
        <path class="st7" d="M1587.24,751.47c9.82,17.57,18.14,35.34,23.97,55.49,10.02,34.64,17.28,78.09,13.44,113.41-12.69-53.19-26.69-101.13-52.62-150.67-108.86-3.37-230.31,33.31-330.68,73.74l-44.62,17.98c-.98.39-1.92,1.33-2.02-.32,28.16-18.23,57.31-34.52,88.41-48.46,55.14-24.72,112.24-43.12,172.17-53.56,44.04-7.67,88.37-11.54,131.95-7.6Z"/>
        <path class="st22" d="M1273.7,1007.72c-4.11-.18-7.74,1.53-11.24,1.31-3.27-.2-6.71,1-10.58-.66,29.84-6.08,59.26-10.24,89.74-14.21l176.77-23.02c28.88-3.76,57-5.83,86.68-.31-30.65,7.11-60.31,9.83-91.18,12.26-58.83,4.64-116.03,10.76-174.66,17.31l-65.53,7.31Z"/>
        <path class="st30" d="M1225.09,1102.01l43.65,13.11,99.71,28.82c44.29,12.8,136.26,32.25,182.79,31.83,5.94-.05,12.88.64,18.02-1.46.86.11,1.39,1.22.46,1.92-43.21,14.23-129.77-3.69-175.13-14.51-38.55-9.2-75.72-20.31-113.29-32.83-29.54-9.85-57.76-20.92-85.79-34.25,10.65,1.84,20.11,4.53,29.57,7.37Z"/>
      </g>
      <g>
        <path class="st14" d="M859.61,913.96l12.21-10.34c3.54-2.99,8.36-5.66,12.49-7.79,37.84-19.56,83.13-18.02,118.25,7.26,36.75-24.91,81.81-26.3,119.85-7.11,4.67,2.35,9.79,5.48,13.86,8.86l11.06,9.19,10.35,10.93c25.37-13.3,50.94-24.93,77.77-34.61,9.61-3.47,18.38-7.21,29.13-8.29-10.36,9.02-20.64,14.89-31.63,21.98-20.47,13.2-40.06,26.06-58.9,41.15-1.48,1.18-2.31,2.77-1.68,4.27.31.74,1.57,1.25,2.06,2.05.28,3.66,2.76,6.86,4.34,9.85,1.08,4.9,1.73,10.2,4.31,15.15l167.3-51.29c44.94-13.78,143.72-37.45,188.37-36.19,13.01.37,37.27,2.73,43.27,14.88-.45,6.83-2.81,12.21-9.65,17.03-11.84,8.35-25.35,13.74-39.73,17.76-37.79,10.57-75.53,17.18-114.5,23.31l-70.12,11.02c-55.87,8.78-110.13,20.91-163.93,36.63-.7,9.84-3.55,18.35-5.19,27.1-1.24,3-3.61,6.3-4.06,10.53l80.88,11.76,176.77,27.8c32.53,5.11,99.4,20.26,128.36,32.82,8.73,3.79,24.25,13.83,20.23,23.26-4.48,10.49-28.96,8.87-38.98,7.59-25.69-3.27-50.03-8.35-75.5-13.81l-80.17-17.19c-56.51-12.11-113.07-25.05-170.1-33.89-18.13-2.81-36.28-8.64-55.54-10.29-4.11,2.79-5.81,9.25-8.83,12.76l-15.42,17.94c23.46,20.45,46.61,39.74,72.61,56.55,47.87,30.94,99.68,52.52,153.13,69.44-59.96-9.7-133.5-43.92-186.41-74.39-18.83-10.84-35.92-22.95-53.17-36.63-3.68,2.68-6.38,4.99-8.84,8.41,32,33.74,66.89,63.65,105.92,89,81.67,53.05,183.96,88.03,280.57,98.81,35.03,3.91,69.01,4.04,103.71-.37,24.32-52.99,39.59-128.64,43.7-185.11.39-5.28,1.9-10.97,3.92-15.79,4.83-11.51,9.27-23.43,13.41-36.2,1.53-4.72-1.29-9.34.52-13.37,1.2.96.6,2.13.65,2.72.03.4.6.78,1.19.61-1.25,35.23-3.35,70.19-8.23,106.01-6.63,48.65-19.44,105.74-41.81,149.16-1.89,3.66-5.47,6.34-9.92,6.88-44.45,5.43-88.5,4.69-133.11-2.13-74.84-11.43-147.06-35.18-214.07-70.46-59.07-31.1-111.46-71.49-157.35-121.18-27.8,22.42-57.15,42.09-88.97,57.72-6.01,3.18-11.58,3.67-17.96.49-33.08-15.26-63.45-34.72-91.99-57.42-95.64,106.21-236.83,171.68-376.08,191.35-42.16,5.95-83.33,6.64-125.06,2.27-6.21-.65-10.7-2.57-13.46-8.17-22.26-45.1-33.11-94.22-40.6-144-5.4-35.82-6.85-70.83-8.17-106.08,2.15,3.46,2.26,7.98,3.86,12.21l9.01,23.77.89,4.85,2.98,13.88c.64,2.96,1.15,6.72,1.67,10.41,9.16,64.91,17.08,115.47,44.04,177.68,109.11,13.23,234.57-19.12,332.02-68.15,51.37-25.84,97.99-59.21,138.9-99.08,7.01-6.83,13.03-13.04,19.06-20.5-2.68-3.27-5.23-5.6-8.7-8.64-39.55,33.15-93.4,61.22-140.53,80.26-32.62,13.18-63.43,25.28-98.06,30.94,50.55-16.8,99.86-36.79,146.18-65.36,28.48-17.57,53.38-38.22,78.62-60.29l-14.64-18.24c-3.19-3.98-5.26-9.2-8.91-13.27l-52.92,9.79c-59.93,11.09-119.68,23.54-179.26,36.32l-65.46,14.03c-29.57,6.34-58.05,12.19-87.82,16.07-9.7,1.26-32.3,2.55-36.9-7.54-3.89-8.52,10.51-18.77,19.12-22.6,34.7-15.45,121.23-32.65,160.93-38.85l148.8-23.26,78.95-10.89c-.81-4.53-2.53-8.06-3.73-11.82-2.73-8.58-4.54-17.43-5.43-26.69-49.69-14.02-98.69-25.88-149.83-34.08l-83.5-13.41c-41.72-6.7-104.74-15.88-142.01-32.9-7.17-3.28-13.47-7.67-18.75-12.59-4.92-4.59-3.45-8.9-4.07-13.63,25.09-34.89,184.69,7.38,222.44,19.01l177.7,54.72,3.87-15,3.43-8.79c.34-.88,1.99-1.72,2.01-2.98.03-1.66-1.27-2.4-2.52-3.5-18.23-15.97-37.65-29.27-57.87-42.3-11.67-7.53-23.23-14.08-34.41-23.42,10.1.72,18.17,4.1,27.42,7.49,28.71,10.52,56.12,22.55,83.14,36.54,4.4-2.97,6.39-8.02,9.22-10.41Z"/>
        <g>
          <path class="st12" d="M1114.69,971.7c33.09,57.61-67.58,133.79-110.59,159.84-40.33-23.06-89.65-65.13-110.21-106.05-8.11-16.54-9.84-35.61-.98-52.74,14.48-28.03,53.59-38.52,78.07-16.96-3.52,8.21-5.75,15.99-5,24.85,1.82,21.47,19.69,38.25,41.46,36.49,18.31-1.48,32.29-15.4,35.92-33.19,2.26-11.07.57-20.94-2.38-31.77,25-14.94,58.99-6.09,73.71,19.53Z"/>
          <path class="st28" d="M1031.21,975.22c-.33,14.98-10.76,28.93-26.2,29.14,2.69-11.67,4.35-23.62-.21-36.03-14.38-39.08-55.5-60.72-95.66-42.02-32.33,15.06-51.69,50.35-46.12,85.89,2.39,15.25,9.65,27.85,17.4,40.3,11.82,18.99,27.61,33.82,43.47,48.73-2.47-.24-2.91,2.97-4.68,4.29-4.09,3.03-6.81,6.89-4.52,11.48-1.98-1.24-2.55-1.19-3.19-1.26-15.66-14.54-30.47-29.7-42.8-47.14-9.98-14.12-17.94-29.49-23.64-46.03-.85-2.48-1.7-6.14-1.48-8.76,1.7-19.83,6.08-38.67,15.26-56.44,24.64-47.66,87.27-66.94,128.62-34.71,24.39,19.01,29.57,40.21,41.75,52.03.72.7,1.34,1.2,2,.54Z"/>
          <path class="st6" d="M1085.31,1100.03c5.6,3.73,7.65,8.76,12.44,13.79-5.52,4.89-10.26,11.15-17.12,15.61.03,1,.33,1.59.93,1.1-16.77,15.39-37.25,26.51-57.5,37.99-7.47,4.24-3,3.69-7.64,11.79-3.58,1.91-8.09,4.07-12.18,5.38-21.34-8.72-39.86-20.41-57.75-32.51-.22-1.19.79-2.09,1-3.21-1.74-1.28,35.16,19.75,34.82,19.62,4.19,1.59,8.58,4.9,13.47,1.25-23.57-11.56-45.02-24.01-65.85-40.22,4.33-6.11,9.08-11.12,9.79-17.77,1.65,1.8,5.53,3.49,7.76,3.29,5,2.31,43.06,33.27,45.17,23.66,2.87,1.73,8.78,5.16,12.27,4.16,5.75-1.64,11.64-4.35,16.16-7.38.8,1.95.37,5.04,1.69,6.79,15.05-8.54,26.59-19.75,39.93-28.42,6.98-4.54,16.08-8.44,22.61-14.91Z"/>
          <path class="st28" d="M1163.05,1009.96c-2.13-1.07-.29,7.55-1.41,12.17-3.79,15.68-17.49,41.36-28.65,55.8-10.22,13.23-22.97,25.03-35.23,35.9-4.79-5.03-6.85-10.06-12.44-13.79,21.96-21.76,38.25-35.91,52.12-66.17,11.46-25,10.41-53.12-5.06-77.5-12.88-20.29-36.53-35.25-62.9-36.19-12.18-.43-23.9,1.69-33.57,7.88-1.63,1.04-3.74,1.49-5.99,3.15-5.02-7.4-10.38-12.91-16.39-19,1.82-2.19,3.49-2.54,4.94-3.34l8.65,8.93c21.28-11.61,45.03-12.64,68.34-5.07,45.17,14.68,64.09,53.34,67.59,97.24Z"/>
          <path class="st13" d="M1005,1004.36c-1.15.02-2.82.81-4.55-.62,9.34-23.31-7.19-47.04-25.53-60.58-34.13-25.19-79.2-7.45-95.02,26.21-23.57,50.13,22.26,96.57,55.33,127.39.09,1.04-.53,2.64-1.64,3.35-.72.46-1.87-.16-3.09,1.15l16.97,14.86c-2.23.21-6.1-1.49-7.76-3.29-4.44-4.83-11.24-7.27-15.85-11.61-15.86-14.91-31.65-29.74-43.47-48.73-7.75-12.45-15.01-25.05-17.4-40.3-5.57-35.55,13.79-70.83,46.12-85.89,40.16-18.71,81.28,2.93,95.66,42.02,4.57,12.41,2.9,24.36.21,36.03Z"/>
          <path class="st5" d="M1031.21,975.22c-.66.66-1.28.17-2-.54-12.18-11.82-17.36-33.02-41.75-52.03-41.36-32.24-103.99-12.95-128.62,34.71-9.18,17.77-13.56,36.61-15.26,56.44-.23,2.63.62,6.28,1.48,8.76-.04.18-.35.36-1.49.53.17,5.14-.48,12.23,1.2,17.31-14.79-32.35-10.55-69.57,10.04-99.58,19.07-27.81,49.11-45.01,82.28-45.16,33.16-.15,64.78,15.67,83.1,43.92,7.3,11.26,11.32,22.98,11.04,35.63Z"/>
          <path class="st29" d="M1085.31,1100.03c-6.53,6.47-15.63,10.37-22.61,14.91,4.41-3.95,9.93-7.58,12.14-12.7-2.97-.56-2.25-3.59-2.1-5.23,9.97-8.18,18.71-18.46,28.1-28.36,11.57-12.2,19.94-25.6,26.85-40.41,9.17-19.66,9.57-42.11-.48-61.42-14.75-28.34-54.13-44.1-84.81-29.83l-6.5-8.93c9.66-6.19,21.39-8.32,33.57-7.88,26.37.94,50.02,15.89,62.9,36.19,15.47,24.38,16.52,52.5,5.06,77.5-13.87,30.26-30.16,44.41-52.12,66.17Z"/>
          <path class="st15" d="M1161.69,1041.38c-2.75-12.36,2.78-13.52,1.36-31.42-3.5-43.9-22.42-82.56-67.59-97.24-23.31-7.58-47.06-6.54-68.34,5.07l-8.65-8.93c23.71-13.12,52.43-16.77,79.2-8.39,58.7,18.38,91.25,85.99,64.02,140.92Z"/>
          <path class="st8" d="M868.68,1068.6c12.33,17.44,27.13,32.6,42.8,47.14-.92-.1-1.69.39-2.01,1.15-.4.94-.08,1.94.76,2.8,1.28,1.33,34.96,28.56,37.28,30.27-.21,1.12-1.22,2.02-1,3.21-16.2-10.96-32.65-21.86-47.13-36.27-13.11-13.03-26.53-25.76-35.18-41.58,1.25-1.39-.97-3.15-.65-4.89.4-2.16,3.33-2.57,5.15-1.82Z"/>
          <path class="st18" d="M1130.05,1093.54c-11.35,14.78-25.98,26.57-40.32,38.23-.26-1.65-2.89-4.17-4.45-3.96-1.64,1.3-2.81,2.38-3.72,2.72-.61.49-.91-.09-.93-1.1,6.86-4.46,11.6-10.71,17.12-15.61,12.26-10.87,25.01-22.67,35.23-35.9,6.62,9.15-7.4,14.53-2.93,15.62Z"/>
          <path class="st10" d="M1089.74,1131.77c-22.79,18.53-47.41,34.73-73.3,48.53,4.63-8.09.17-7.55,7.64-11.79,20.25-11.48,40.73-22.6,57.5-37.99.91-.33,2.08-1.41,3.72-2.72,1.56-.21,4.19,2.31,4.45,3.96Z"/>
          <path class="st1" d="M1062.7,1114.93c-13.34,8.67-24.88,19.88-39.93,28.42-1.32-1.75-.89-4.85-1.69-6.79,18.04-12.13,34.9-25.81,51.67-39.56-.15,1.63-.87,4.66,2.1,5.23-2.22,5.12-7.73,8.75-12.14,12.7Z"/>
          <path class="st11" d="M1161.69,1041.38c-6.42,19.14-18.9,36.48-31.63,52.16-4.47-1.09,9.55-6.47,2.93-15.62,11.16-14.44,24.86-40.11,28.65-55.8,1.12-4.62-.72-13.24,1.41-12.17,1.43,17.9-4.11,19.06-1.36,31.42Z"/>
          <path class="st26" d="M992.65,1139.79c-2.11,9.62-40.17-21.35-45.17-23.66l-16.97-14.86c1.22-1.31,2.36-.69,3.09-1.15,1.12-.71,1.73-2.31,1.64-3.35,17.5,16.31,36.84,30.6,57.41,43.02Z"/>
          <path class="st3" d="M868.68,1068.6c-1.82-.75-4.75-.34-5.15,1.82-.32,1.74,1.91,3.51.65,4.89-8.14-10.27-15.3-22.39-19.43-34.9-1.68-5.08-1.03-12.18-1.2-17.31,1.14-.17,1.45-.35,1.49-.53,5.69,16.54,13.66,31.92,23.64,46.03Z"/>
          <path class="st27" d="M988.73,997.77c-8.97-6.07-12.34-18.92-6.88-29.43,6.79,7.59,10.75,17.82,6.88,29.43Z"/>
          <path class="st25" d="M923.87,1101.23c4.61,4.34,11.41,6.78,15.85,11.61-.71,6.66-5.46,11.67-9.79,17.77,20.83,16.22,42.28,28.67,65.85,40.22-4.88,3.65-9.27.34-13.47-1.25.34.13-36.56-20.9-34.82-19.62-2.32-1.7-36-28.93-37.28-30.27-.83-.87-1.16-1.86-.76-2.8.33-.76,1.09-1.25,2.01-1.15.64.07,1.21.02,3.19,1.26-2.29-4.59.43-8.45,4.52-11.48,1.78-1.32,2.21-4.53,4.68-4.29Z"/>
        </g>
      </g>
    </g>
  </g>
</svg>