<?xml version="1.0" encoding="UTF-8"?>
<svg id="Layer_1" xmlns="http://www.w3.org/2000/svg" version="1.1" viewBox="0 0 2000 2000">
  <!-- Generator: Adobe Illustrator 30.2.1, SVG Export Plug-In . SVG Version: 2.1.1 Build 1)  -->
  <defs>
    <style>
      .st0 {
        fill: #e4eedd;
      }

      .st1 {
        fill: #b0d38e;
      }

      .st2 {
        fill: #87bc64;
      }

      .st3 {
        fill: #96bf74;
      }

      .st4 {
        fill: #89bd65;
      }

      .st5 {
        fill: #f7f9f6;
      }

      .st6 {
        fill: #82b55c;
      }

      .st7 {
        fill: #fdfefd;
      }

      .st8 {
        fill: #68a54c;
      }

      .st9 {
        fill: #84bb60;
      }

      .st10 {
        fill: #abd28b;
      }

      .st11 {
        fill: #9bc579;
      }

      .st12 {
        fill: #fefeff;
      }

      .st13 {
        fill: #69aa4f;
      }

      .st14 {
        fill: #3b6341;
      }

      .st15 {
        fill: #f6f9f5;
      }

      .st16 {
        fill: #71b055;
      }

      .st17 {
        fill: #c2daae;
      }

      .st18 {
        fill: #6ea950;
      }

      .st19 {
        fill: #7fb85c;
      }

      .st20 {
        fill: #71b056;
      }

      .st21 {
        fill: #c6ddb3;
      }

      .st22 {
        fill: #f5f9f2;
      }

      .st23 {
        fill: #9ec67c;
      }

      .st24 {
        fill: #9dc57b;
      }

      .st25 {
        fill: #9cc27e;
      }

      .st26 {
        fill: #a0cc7c;
      }

      .st27 {
        fill: #8fc06c;
      }

      .st28 {
        fill: #bbd6a5;
      }

      .st29 {
        fill: #6aab4f;
      }

      .st30 {
        fill: #e3eedc;
      }

      .st31 {
        fill: #7bb454;
      }

      .st32 {
        fill: #f4f8f2;
      }

      .st33 {
        fill: #b9d4a1;
      }

      .st34 {
        fill: #63a34c;
      }
    </style>
  </defs>
  <g id="Generative_Object">
    <g>
      <path class="st4" d="M965.49,959.25c-1.2.62-2.6,1.39-3.63,2.27-5.22-4.95-11.39-8.73-17.38-12.68-22.73-14.99-52.24-25.88-79.36-30.04-11.68-1.79-23.29-2.6-34.8-1.54-1.37.13-2.89-.43-4.79.08-14.64,29.85-15.61,71.49-13.67,103.94-.31-.17-.5.28-.79.33l-2.62-6.91c-.47-1.23-.5-2.55-1.12-3.55-.49-12.93-.62-25.85.45-39.03,1.56-19.25,4.87-38.64,13.42-56.1.71-1.45,1.63-2.57,3.14-2.74,26.11-2.97,54.02,1.89,78.85,10.64,15.08,5.31,29.34,11.96,42.76,20.51,7.05,4.49,13.67,9.21,19.55,14.82Z"/>
      <path class="st31" d="M811.06,1021.61c.3-.05.48-.5.79-.33.09,1.53.06,3.32.57,4.9,3.59,11.12,11.66,19.81,22.36,24.43,6.47,2.79,13.07,4.17,20.17,4.58,26.06,1.51,52.87-7.72,75.11-20.99,9.67-5.77,18.49-12.28,27.18-19.06l4.26,5.31c-7.34,6.42-14.59,12.43-22.87,17.54-13.48,8.31-27.82,14.13-42.53,19.01,10.08-1.65,19.04-5.17,28.53-9,13.71-5.54,29.38-13.7,40.89-23.35,1.01.89,1.75,1.56,2.53,2.52-1.75,2.17-3.51,3.98-5.55,5.96-11.9,11.6-25.47,21.31-40.41,28.83-28.35,14.26-64.86,23.68-96.6,19.83-7.84-18.1-10.15-32.81-12.81-51.69-.15-1.08-.3-2.17-.49-3.03l-.87-4.04-.26-1.41Z"/>
      <path class="st19" d="M949.32,1000.01c.35,1.09.85,2.12,1.09,3.44l-22.97,3.17-43.29,6.77c-11.55,1.81-36.72,6.81-46.82,11.3-2.51,1.12-6.69,4.1-5.56,6.58,1.34,2.94,7.91,2.56,10.74,2.2,8.66-1.13,16.95-2.83,25.55-4.68l19.05-4.08c-.18,1.27.36,2.53.73,3.83l1.04,3.72c1.32-.23,3.65-1.23,3.48-.48-12.03,3.39-35.95,8.57-48.59,8.82-2.6.05-5.47.42-7.84-.31-5.84-1.8-12.84-4.94-16.32-10.83-2.91-4.94-2.02-10.81,2.05-14.79,6.6-6.45,19.68-9.09,28.7-9.67l35.78-2.31,63.19-2.68Z"/>
      <path class="st9" d="M949.45,978.31l-1.13,4.37-51.7-15.92c-10.98-3.38-57.42-15.68-64.72-5.53-.3-2.35.57-4.51,2.67-6.27,9.27-7.77,34.75-2.56,45.95.2,9.76,2.41,18.93,5.21,28.56,8.22,13.87,4.34,27.11,9.52,40.35,14.93Z"/>
      <path class="st23" d="M939.25,1014.13c-.23,3.94.9.79.02,4.15l-17.72,5.24-29.2,8.24c.17-.75-2.16.25-3.48.48l-1.04-3.72c-.37-1.3-.91-2.56-.73-3.83,17.33-3.72,34.72-7.34,52.15-10.57Z"/>
      <path class="st20" d="M958.3,964.52c-.82.7-1.4,2.17-2.68,3.03-7.86-4.07-15.84-7.57-24.19-10.63-2.69-.99-5.04-1.97-7.98-2.18,3.25,2.72,6.62,4.62,10.01,6.81,5.88,3.79,11.53,7.66,16.84,12.31.36.32.74.53.73,1.02,0,.37-.49.61-.59.87-9.28-6.62-19.12-12.54-29.22-18.47-6.41-3.77-12.68-6.83-19.32-9.93,4.42-.16,8.39.56,12.79,1.35,15.44,2.77,30.28,7.9,43.59,15.83Z"/>
      <path class="st7" d="M944.48,948.84c0,.09-.17.15-.32.12l-12.42-5.07c-28.17-11.49-66.12-22.42-96.88-21.38-7.54,14.43-11.73,28.02-15.57,43.84-1.19-14.71,3.06-35.94,10.98-48.52.13-.21.16-.44.06-.58,11.51-1.07,23.12-.26,34.8,1.54,27.12,4.16,56.63,15.05,79.36,30.04Z"/>
      <path class="st0" d="M835.92,1040.27c2.36.73,5.24.36,7.84.31,12.64-.25,36.56-5.42,48.59-8.82l29.2-8.24,17.72-5.24c1.58-.47,3.14-1.04,5.01-1.17-6.56,3.27-13.18,5.96-20.23,8.42-19.03,6.64-42.11,13.02-61.98,15.69-7.82,1.05-19.42,2.16-26.86-.59.13-.4.49-.18.71-.35Z"/>
      <g>
        <path class="st17" d="M830.32,917.26c.1.14.07.37-.06.58-7.92,12.58-12.17,33.81-10.98,48.52,3.84-15.83,8.03-29.42,15.57-43.84,30.76-1.04,68.72,9.88,96.88,21.38l12.42,5.07c.15.03.33-.03.32-.12,5.98,3.95,12.16,7.72,17.38,12.68l-3.55,3.01c-13.31-7.93-28.16-13.06-43.59-15.83-4.4-.79-8.38-1.51-12.79-1.35,6.63,3.09,12.9,6.16,19.32,9.93,10.09,5.93,19.94,11.85,29.22,18.47l-1,2.56c-13.24-5.41-26.49-10.59-40.35-14.93-9.63-3.01-18.8-5.81-28.56-8.22-11.2-2.77-36.69-7.98-45.95-.2-2.1,1.76-2.98,3.92-2.67,6.27.18,1.38-.25,2.63,1.18,3.97,1.54,1.43,3.37,2.71,5.45,3.66,10.84,4.95,29.18,7.62,41.32,9.57l24.29,3.9c14.88,2.39,29.13,5.84,43.59,9.92.26,2.69.79,5.27,1.58,7.77l-63.19,2.68-35.78,2.31c-9.02.58-22.1,3.21-28.7,9.67-4.07,3.98-4.96,9.85-2.05,14.79,3.47,5.89,10.47,9.03,16.32,10.83-.22.17-.58-.05-.71.35,7.44,2.75,19.03,1.64,26.86.59,19.88-2.67,42.96-9.05,61.98-15.69,7.05-2.46,13.67-5.15,20.23-8.42-1.87.13-3.43.71-5.01,1.17.88-3.36-.24-.21-.02-4.15l15.4-2.85c1.06,1.18,1.67,2.7,2.59,3.86-8.69,6.78-17.51,13.29-27.18,19.06-22.24,13.27-49.05,22.5-75.11,20.99-7.1-.41-13.7-1.79-20.17-4.58-10.7-4.62-18.76-13.31-22.36-24.43-.51-1.58-.48-3.37-.57-4.9-1.94-32.45-.98-74.09,13.67-103.94,1.9-.51,3.43.04,4.79-.08Z"/>
        <path class="st32" d="M927.88,992.17c-7.32-.27-13.95-1.16-21.12-2.06-19.22-2.4-38.07-4.2-57.38-5.65-8.89-.66-17.36-1.61-26.33-3.53,8.61-1.44,16.87-.93,25.34.14l53.77,6.82c8.81,1.12,17.24,2.16,25.72,4.27Z"/>
      </g>
    </g>
    <g>
      <g>
        <path class="st2" d="M1193.33,1009.85c-.17.05-.34-.06-.35-.18-.01-.17.16-.51-.19-.79-.53,1.17.29,2.51-.15,3.89-1.2,3.71-2.5,7.18-3.9,10.53-.23-.03-.43-.26-.39-.66.71-7.63.81-15.11.94-22.59.44-26.34-2.42-58.36-14.2-82.59-1.74-.72-3.55-.07-5.1-.21-12.68-1.15-25.57-.02-38.39,2.21-17.44,3.04-34.05,8.39-50.09,15.58-9.05,4.06-17.53,8.79-25.72,14.1-5.95,3.85-11.79,7.96-17.01,12.73-1.18-.98-2.67-1.89-4.03-2.58,8.41-6.8,17.05-13.25,26.6-18.75,21.65-12.47,45.23-21.17,69.91-25.53,14.73-2.6,29.49-3.34,44.23-1.81,1.65.17,2.82.84,3.65,2.48,13.66,27.29,15.24,64.35,14.19,94.16Z"/>
        <path class="st21" d="M1189.3,1000.04c-.47-.26-.38.84-.64.85-2.72.03-5.67.28-8.33-.05-1.29-.16-2.39-.11-3.76,0-.27-.42-.29-.49-.42-.61.62.57-6.22-.79-6.52-.83-1.51-.23-2.98.23-4.55-.1-1.1-.23-2.19.29-3.33.42-2.46.28-8.87-.3-8.86-.3-.68.21-1.75.55-2.53.21-1.12-.49-1.81.36-2.66.4-1.78.07-5.2.05-7.19.07-1.17.01-2.08-1.08-3.07-.17-.75.69-2.95-.87-4.73-.15-2.12.85-4.01-.49-5.67-.06s-2.86-.44-4.5-.6l-4.69-.44c-1.56-.14-2.82-.18-4.32-.12-1.97.08-3.86-.47-5.88.27-.87.32-2.05-.31-2.9-.35-9.24-.39-7.49-2.12-15.93-3.56-5.04-.86-4.65,2.02-8.18-.4-1.09-.75-1.59-1.44-1.86-2.74l19.06-2.13c17.06-1.9,33.7-3.68,50.82-5.03,8.98-.71,17.61-1.5,26.53-3.57-8.64-1.61-16.82-1-25.22.09l-51.43,6.7c-8.87,1.15-17.43,2.36-26.11,4.13,1.13.48,2.13.13,3.08.19-.43,1.89,1.16.92.59,3-.24.9-4.41,1.56-4.28,4.22.58.27.86.46.72.77-.23.5-3.51-.11-3.6-.11-2.52-.21-4.89.18-7.31-.32.07-.91.1-1.85-.31-2.78-.9-2.05-4.6.13-4.86.63-.33.64-.68,1.63-.05,2.12.33.26.73.18.63.54-1.93-.08-3.93,0-5.85.01.48-2.55,1.31-5.02,1.51-7.88,15.65-4.57,31.44-8.1,47.69-10.66l20.4-3.21c11.34-1.78,22.32-3.71,33.31-6.78,4.18-1.17,8.12-2.74,11.56-5.17,1.99-1.4,2.68-2.97,2.81-4.96.74-11.14-16.66-11.07-24.74-10.37-17.2,1.49-50.74,10.93-66.96,17.19l-25.63,9.9c-.46-.87-1.18-1.8-1.26-2.87l15.98-10.13c10.65-6.75,21.52-12.87,32.96-18.01-3.67-.02-6.94.42-10.57,1.05-15.7,2.72-31.96,8.06-45.66,16.14-.21.13-.42.03-.6.04l-3.22-2.67c5.21-4.78,11.05-8.88,17.01-12.73.03.48.3.21.59.09l12.98-5.23c29.2-11.76,64.54-22.44,96.21-21.45,7.54,14.41,11.62,28.36,15.31,43.84,1.12-10.27-.99-22.92-3.91-32.99-1.7-5.86-4.12-11.03-6.97-16.14,1.55.14,3.35-.51,5.1.21,11.77,24.23,14.64,56.24,14.2,82.59Z"/>
        <path class="st34" d="M1187.61,1027.89c-1.2,16.43-5.64,38.44-12.72,53.86-10.1,1.28-19.98,1.25-30.17.11-28.11-3.14-57.87-13.31-81.63-28.75-11.36-7.38-21.51-16.08-30.82-25.89.71-1,1.5-1.67,2.57-2.45,5.02,3.98,9.99,7.5,15.47,10.66,15.39,8.87,36.79,18.82,54.23,21.64-15.55-4.92-30.62-11.2-44.55-20.2-7.56-4.89-14.3-10.5-21.13-16.45l4.49-5.22c27.34,22.34,61.6,40.61,98.08,40.19,19.52-.23,37-7.34,45.23-25.95.28-.63.49-1.23.93-1.54Z"/>
        <path class="st33" d="M1078.78,991.8c.27,1.29.78,1.99,1.86,2.74,3.53,2.42,3.14-.46,8.18.4,8.43,1.44,6.69,3.17,15.93,3.56.84.04,2.03.66,2.9.35,2.02-.74,3.91-.19,5.88-.27,1.51-.06,2.77-.03,4.32.12l4.69.44c1.64.15,2.91,1.01,4.5.6,1.66-.43,3.55.91,5.67.06,1.78-.72,3.98.84,4.73.15.99-.91,1.9.18,3.07.17,1.99-.02,5.41,0,7.19-.07.85-.04,1.54-.89,2.66-.4.77.34,1.85,0,2.53-.21,0,0,6.4.58,8.86.3,1.14-.13,2.23-.64,3.33-.42,1.57.32,3.04-.13,4.55.1.3.05,7.14,1.4,6.52.83.12.11.14.19.42.61,1.36-.11,2.47-.16,3.76,0,2.66.33,5.61.07,8.33.05.27,0,.17-1.11.64-.85-.12,7.48-.23,14.96-.94,22.59-.04.41.16.63.39.66-.59,1.4-1.03,3.06-1.14,4.6-.45.3-.66.91-.93,1.54-8.23,18.61-25.72,25.73-45.23,25.95-36.48.42-70.74-17.85-98.08-40.19.88-1.02,1.37-2.9,2.57-3.71,5.6.48,10.88,2.17,16.16,2.99.15,1.1-.54,1.98-.53,3.32l2.81,1.01c.37-.11.28.19.27.43-2.75-.83-5.51-1.61-8.6-2.14,8.15,3.88,16.36,7.1,24.96,9.96,10.93,3.64,21.74,6.88,32.96,9.55,13.2,3.15,38.38,8.36,50.95,4.22.27-.2.12-.53-.13-.56,5.55-2.27,11.31-4.03,15.39-10.04,3.47-5.11,2.7-11.46-1.73-15.69-6.49-6.21-19.7-8.97-28.45-9.53l-34.86-2.24-44.51-2.08c-2.33-.11-4.35-.05-6.54-.15l-7.02-.3c.1-.36-.31-.28-.63-.54-.64-.5-.29-1.48.05-2.12.26-.5,3.96-2.68,4.86-.63.41.93.38,1.87.31,2.78,2.43.5,4.79.11,7.31.32.08,0,3.36.62,3.6.11.14-.31-.14-.5-.72-.77-.13-2.66,4.03-3.31,4.28-4.22.56-2.08-1.02-1.12-.59-3,1.02.06,2.07-.43,3.27-.38Z"/>
        <path class="st19" d="M1057.05,1000.24l7.02.3c2.19.09,4.21.04,6.54.15l44.51,2.08,34.86,2.24c8.75.56,21.96,3.32,28.45,9.53,4.43,4.24,5.2,10.58,1.73,15.69-4.08,6.01-9.83,7.76-15.39,10.04-1.49.61-3.51.41-5.24.43-13.54.12-40.29-5.54-53.18-9.26-.26-.77,2.69.36,3.79.49l1.43-7.59,23.33,5c7.41,1.59,14.49,3.07,21.97,4.02,2.92.37,10.04.84,11.34-2.21,1.17-2.74-3.34-5.67-5.88-6.77-8.43-3.65-27.88-8.06-37.34-9.55l-51.43-8.09-23.53-3.42c.13-1.23.82-2.19,1.18-3.06,1.93-.01,3.92-.1,5.85-.01Z"/>
        <path class="st9" d="M1168.48,961.6c-1.75-3.54-8.8-4.22-12.59-4.33-12.99-.37-41.73,6.52-54.81,10.53l-48.68,14.92c-.75-1.44-.94-2.98-1.25-4.41l25.63-9.9c16.21-6.26,49.76-15.7,66.96-17.19,8.07-.7,25.48-.77,24.74,10.37Z"/>
        <path class="st24" d="M1111.57,1024.33l-1.43,7.59c-1.1-.13-4.05-1.26-3.79-.49l-29.01-8.39-12.7-3.81c0-.24.1-.53-.27-.43l-2.81-1.01c0-1.34.68-2.22.53-3.32,16.59,2.57,33.05,6.34,49.49,9.86Z"/>
        <path class="st16" d="M1049.89,975.45c-.14-.23-.51-.38-.6-.6-.18-.44.06-.9.49-1.24,5.48-4.39,11.18-8.13,17.14-11.97,3.2-2.06,6.19-3.77,9.2-6.4-3.13.32-5.68,1.4-8.48,2.41-7.8,2.82-15.24,6.2-22.63,10.07l-3.01-3.18c.18,0,.39.09.6-.04,13.7-8.09,29.95-13.42,45.66-16.14,3.63-.63,6.9-1.07,10.57-1.05-11.44,5.14-22.31,11.26-32.96,18.01l-15.98,10.13Z"/>
        <path class="st7" d="M1170,917.25c2.86,5.11,5.28,10.28,6.97,16.14,2.91,10.08,5.03,22.72,3.91,32.99-3.69-15.47-7.76-29.42-15.31-43.84-31.67-.98-67.01,9.69-96.21,21.45l-12.98,5.23c-.29.11-.56.39-.59-.09,8.19-5.3,16.67-10.04,25.72-14.1,16.04-7.19,32.66-12.55,50.09-15.58,12.81-2.23,25.71-3.36,38.39-2.21Z"/>
        <path class="st22" d="M1078.78,991.8c-1.2-.05-2.25.44-3.27.38-.95-.06-1.95.29-3.08-.19,8.68-1.77,17.24-2.98,26.11-4.13l51.43-6.7c8.4-1.09,16.58-1.7,25.22-.09-8.92,2.07-17.55,2.86-26.53,3.57-17.12,1.35-33.76,3.13-50.82,5.03l-19.06,2.13Z"/>
        <path class="st30" d="M1064.63,1019.23l12.7,3.81,29.01,8.39c12.89,3.72,39.64,9.38,53.18,9.26,1.73-.02,3.75.19,5.24-.43.25.03.4.36.13.56-12.57,4.14-37.76-1.07-50.95-4.22-11.22-2.68-22.03-5.91-32.96-9.55-8.6-2.87-16.81-6.09-24.96-9.96,3.1.54,5.85,1.32,8.6,2.14Z"/>
      </g>
      <g>
        <path class="st14" d="M958.3,964.52l3.55-3.01c1.03-.87,2.43-1.65,3.63-2.27,11.01-5.69,24.19-5.24,34.4,2.11,10.69-7.25,23.8-7.65,34.87-2.07,1.36.68,2.85,1.59,4.03,2.58l3.22,2.67,3.01,3.18c7.38-3.87,14.82-7.25,22.63-10.07,2.8-1.01,5.35-2.1,8.48-2.41-3.02,2.62-6,4.33-9.2,6.4-5.96,3.84-11.65,7.58-17.14,11.97-.43.34-.67.81-.49,1.24.09.21.46.36.6.6.08,1.06.8,2,1.26,2.87.31,1.43.5,2.97,1.25,4.41l48.68-14.92c13.08-4.01,41.81-10.9,54.81-10.53,3.79.11,10.84.8,12.59,4.33-.13,1.99-.82,3.55-2.81,4.96-3.44,2.43-7.38,4-11.56,5.17-10.99,3.07-21.98,5-33.31,6.78l-20.4,3.21c-16.26,2.55-32.04,6.08-47.69,10.66-.2,2.86-1.03,5.34-1.51,7.88-.36.87-1.05,1.83-1.18,3.06l23.53,3.42,51.43,8.09c9.46,1.49,28.92,5.9,37.34,9.55,2.54,1.1,7.06,4.02,5.88,6.77-1.3,3.05-8.42,2.58-11.34,2.21-7.47-.95-14.56-2.43-21.97-4.02l-23.33-5c-16.44-3.52-32.9-7.29-49.49-9.86-5.28-.82-10.56-2.51-16.16-2.99-1.2.81-1.69,2.69-2.57,3.71l-4.49,5.22c6.83,5.95,13.56,11.56,21.13,16.45,13.93,9,29,15.28,44.55,20.2-17.45-2.82-38.84-12.78-54.23-21.64-5.48-3.15-10.45-6.68-15.47-10.66-1.07.78-1.86,1.45-2.57,2.45,9.31,9.82,19.46,18.52,30.82,25.89,23.76,15.43,53.52,25.61,81.63,28.75,10.19,1.14,20.08,1.17,30.17-.11,7.08-15.42,11.52-37.43,12.72-53.86.11-1.54.55-3.19,1.14-4.6,1.4-3.35,2.7-6.82,3.9-10.53.45-1.37-.38-2.72.15-3.89.35.28.17.62.19.79,0,.12.17.23.35.18-.36,10.25-.97,20.42-2.39,30.84-1.93,14.16-5.66,30.77-12.17,43.4-.55,1.07-1.59,1.84-2.89,2-12.93,1.58-25.75,1.36-38.73-.62-21.77-3.33-42.79-10.24-62.28-20.5-17.19-9.05-32.43-20.8-45.78-35.26-8.09,6.52-16.63,12.25-25.89,16.79-1.75.93-3.37,1.07-5.23.14-9.63-4.44-18.46-10.1-26.76-16.71-27.82,30.9-68.9,49.95-109.42,55.67-12.27,1.73-24.24,1.93-36.38.66-1.81-.19-3.11-.75-3.92-2.38-6.48-13.12-9.63-27.41-11.81-41.89-1.57-10.42-1.99-20.61-2.38-30.86.63,1.01.66,2.32,1.12,3.55l2.62,6.91.26,1.41.87,4.04c.18.86.33,1.95.49,3.03,2.66,18.88,4.97,33.6,12.81,51.69,31.74,3.85,68.25-5.56,96.6-19.83,14.95-7.52,28.51-17.23,40.41-28.83,2.04-1.99,3.79-3.79,5.55-5.96-.78-.95-1.52-1.63-2.53-2.52-11.51,9.65-27.17,17.81-40.89,23.35-9.49,3.83-18.45,7.35-28.53,9,14.71-4.89,29.05-10.7,42.53-19.01,8.29-5.11,15.53-11.12,22.87-17.54l-4.26-5.31c-.93-1.16-1.53-2.68-2.59-3.86l-15.4,2.85c-17.43,3.23-34.82,6.85-52.15,10.57l-19.05,4.08c-8.6,1.84-16.89,3.55-25.55,4.68-2.82.37-9.4.74-10.74-2.2-1.13-2.48,3.06-5.46,5.56-6.58,10.1-4.5,35.27-9.5,46.82-11.3l43.29-6.77,22.97-3.17c-.24-1.32-.74-2.34-1.09-3.44-.79-2.5-1.32-5.07-1.58-7.77-14.46-4.08-28.71-7.53-43.59-9.92l-24.29-3.9c-12.14-1.95-30.47-4.62-41.32-9.57-2.09-.95-3.92-2.23-5.45-3.66-1.43-1.34-1.01-2.59-1.18-3.97,7.3-10.15,53.73,2.15,64.72,5.53l51.7,15.92,1.13-4.37,1-2.56c.1-.26.58-.5.59-.87,0-.48-.37-.7-.73-1.02-5.3-4.65-10.95-8.52-16.84-12.31-3.4-2.19-6.76-4.1-10.01-6.81,2.94.21,5.29,1.19,7.98,2.18,8.35,3.06,16.33,6.56,24.19,10.63,1.28-.86,1.86-2.33,2.68-3.03Z"/>
        <g>
          <path class="st12" d="M1032.51,981.32c9.63,16.76-19.66,38.92-32.17,46.51-11.73-6.71-26.08-18.95-32.07-30.86-2.36-4.81-2.86-10.36-.29-15.34,4.21-8.16,15.59-11.21,22.71-4.94-1.02,2.39-1.67,4.65-1.46,7.23.53,6.25,5.73,11.13,12.06,10.62,5.33-.43,9.4-4.48,10.45-9.66.66-3.22.17-6.09-.69-9.24,7.27-4.35,17.16-1.77,21.45,5.68Z"/>
          <path class="st28" d="M1008.22,982.34c-.1,4.36-3.13,8.42-7.62,8.48.78-3.39,1.27-6.87-.06-10.48-4.19-11.37-16.15-17.67-27.83-12.22-9.41,4.38-15.04,14.65-13.42,24.99.7,4.44,2.81,8.1,5.06,11.72,3.44,5.53,8.03,9.84,12.65,14.18-.72-.07-.85.87-1.36,1.25-1.19.88-1.98,2.01-1.32,3.34-.58-.36-.74-.35-.93-.37-4.56-4.23-8.87-8.64-12.45-13.71-2.9-4.11-5.22-8.58-6.88-13.39-.25-.72-.5-1.79-.43-2.55.5-5.77,1.77-11.25,4.44-16.42,7.17-13.87,25.39-19.48,37.42-10.1,7.1,5.53,8.6,11.7,12.15,15.14.21.2.39.35.58.16Z"/>
          <path class="st6" d="M1023.97,1018.65c1.63,1.09,2.23,2.55,3.62,4.01-1.61,1.42-2.99,3.24-4.98,4.54,0,.29.09.46.27.32-4.88,4.48-10.84,7.71-16.73,11.05-2.17,1.23-.87,1.07-2.22,3.43-1.04.55-2.35,1.18-3.54,1.56-6.21-2.54-11.6-5.94-16.8-9.46-.06-.35.23-.61.29-.93-.51-.37,10.23,5.75,10.13,5.71,1.22.46,2.5,1.42,3.92.36-6.86-3.36-13.1-6.99-19.16-11.7,1.26-1.78,2.64-3.23,2.85-5.17.48.52,1.61,1.02,2.26.96,1.45.67,12.53,9.68,13.14,6.88.83.5,2.55,1.5,3.57,1.21,1.67-.48,3.39-1.27,4.7-2.15.23.57.11,1.47.49,1.98,4.38-2.49,7.74-5.75,11.62-8.27,2.03-1.32,4.68-2.45,6.58-4.34Z"/>
          <path class="st28" d="M1046.58,992.45c-.62-.31-.09,2.2-.41,3.54-1.1,4.56-5.09,12.03-8.34,16.23-2.97,3.85-6.68,7.28-10.25,10.44-1.39-1.46-1.99-2.93-3.62-4.01,6.39-6.33,11.13-10.45,15.16-19.25,3.33-7.27,3.03-15.45-1.47-22.55-3.75-5.9-10.63-10.26-18.3-10.53-3.54-.13-6.95.49-9.77,2.29-.47.3-1.09.43-1.74.92-1.46-2.15-3.02-3.76-4.77-5.53.53-.64,1.01-.74,1.44-.97l2.52,2.6c6.19-3.38,13.1-3.68,19.88-1.47,13.14,4.27,18.65,15.52,19.67,28.29Z"/>
          <path class="st13" d="M1000.6,990.82c-.33,0-.82.24-1.32-.18,2.72-6.78-2.09-13.69-7.43-17.62-9.93-7.33-23.04-2.17-27.65,7.63-6.86,14.58,6.48,28.09,16.1,37.06.03.3-.15.77-.48.98-.21.13-.54-.05-.9.33l4.94,4.32c-.65.06-1.78-.43-2.26-.96-1.29-1.4-3.27-2.11-4.61-3.38-4.61-4.34-9.21-8.65-12.65-14.18-2.25-3.62-4.37-7.29-5.06-11.72-1.62-10.34,4.01-20.61,13.42-24.99,11.68-5.44,23.65.85,27.83,12.22,1.33,3.61.84,7.09.06,10.48Z"/>
          <path class="st5" d="M1008.22,982.34c-.19.19-.37.05-.58-.16-3.54-3.44-5.05-9.61-12.15-15.14-12.03-9.38-30.25-3.77-37.42,10.1-2.67,5.17-3.95,10.65-4.44,16.42-.07.76.18,1.83.43,2.55-.01.05-.1.11-.43.16.05,1.49-.14,3.56.35,5.04-4.3-9.41-3.07-20.24,2.92-28.97,5.55-8.09,14.29-13.09,23.94-13.14s18.85,4.56,24.18,12.78c2.12,3.28,3.29,6.69,3.21,10.37Z"/>
          <path class="st29" d="M1023.97,1018.65c-1.9,1.88-4.55,3.02-6.58,4.34,1.28-1.15,2.89-2.21,3.53-3.69-.86-.16-.65-1.05-.61-1.52,2.9-2.38,5.44-5.37,8.18-8.25,3.37-3.55,5.8-7.45,7.81-11.76,2.67-5.72,2.78-12.25-.14-17.87-4.29-8.25-15.75-12.83-24.67-8.68l-1.89-2.6c2.81-1.8,6.22-2.42,9.77-2.29,7.67.27,14.55,4.62,18.3,10.53,4.5,7.09,4.81,15.27,1.47,22.55-4.03,8.8-8.77,12.92-15.16,19.25Z"/>
          <path class="st15" d="M1046.19,1001.59c-.8-3.6.81-3.93.4-9.14-1.02-12.77-6.52-24.02-19.67-28.29-6.78-2.2-13.69-1.9-19.88,1.47l-2.52-2.6c6.9-3.82,15.26-4.88,23.04-2.44,17.08,5.35,26.55,25.02,18.63,41Z"/>
          <path class="st8" d="M960.94,1009.51c3.59,5.07,7.89,9.48,12.45,13.71-.27-.03-.49.11-.59.34-.12.27-.02.56.22.82.37.39,10.17,8.31,10.85,8.81-.06.33-.36.59-.29.93-4.71-3.19-9.5-6.36-13.71-10.55-3.81-3.79-7.72-7.5-10.24-12.1.36-.4-.28-.92-.19-1.42.12-.63.97-.75,1.5-.53Z"/>
          <path class="st18" d="M1036.98,1016.77c-3.3,4.3-7.56,7.73-11.73,11.12-.08-.48-.84-1.21-1.29-1.15-.48.38-.82.69-1.08.79-.18.14-.26-.03-.27-.32,2-1.3,3.37-3.12,4.98-4.54,3.57-3.16,7.28-6.6,10.25-10.44,1.93,2.66-2.15,4.23-.85,4.55Z"/>
          <path class="st10" d="M1025.25,1027.89c-6.63,5.39-13.79,10.1-21.33,14.12,1.35-2.35.05-2.2,2.22-3.43,5.89-3.34,11.85-6.57,16.73-11.05.26-.1.61-.41,1.08-.79.45-.06,1.22.67,1.29,1.15Z"/>
          <path class="st1" d="M1017.39,1022.99c-3.88,2.52-7.24,5.78-11.62,8.27-.38-.51-.26-1.41-.49-1.98,5.25-3.53,10.15-7.51,15.03-11.51-.04.48-.25,1.36.61,1.52-.65,1.49-2.25,2.55-3.53,3.69Z"/>
          <path class="st11" d="M1046.19,1001.59c-1.87,5.57-5.5,10.61-9.2,15.18-1.3-.32,2.78-1.88.85-4.55,3.25-4.2,7.23-11.67,8.34-16.23.32-1.34-.21-3.85.41-3.54.41,5.21-1.2,5.55-.4,9.14Z"/>
          <path class="st26" d="M997.01,1030.22c-.61,2.8-11.69-6.21-13.14-6.88l-4.94-4.32c.35-.38.69-.2.9-.33.32-.21.5-.67.48-.98,5.09,4.74,10.72,8.9,16.7,12.52Z"/>
          <path class="st3" d="M960.94,1009.51c-.53-.22-1.38-.1-1.5.53-.09.51.55,1.02.19,1.42-2.37-2.99-4.45-6.51-5.65-10.15-.49-1.48-.3-3.54-.35-5.04.33-.05.42-.1.43-.16,1.66,4.81,3.97,9.29,6.88,13.39Z"/>
          <path class="st27" d="M995.87,988.9c-2.61-1.76-3.59-5.5-2-8.56,1.97,2.21,3.13,5.18,2,8.56Z"/>
          <path class="st25" d="M977,1019.01c1.34,1.26,3.32,1.97,4.61,3.38-.21,1.94-1.59,3.39-2.85,5.17,6.06,4.72,12.3,8.34,19.16,11.7-1.42,1.06-2.7.1-3.92-.36.1.04-10.64-6.08-10.13-5.71-.67-.5-10.47-8.42-10.85-8.81-.24-.25-.34-.54-.22-.82.09-.22.32-.36.59-.34.19.02.35,0,.93.37-.66-1.33.12-2.46,1.32-3.34.52-.38.64-1.32,1.36-1.25Z"/>
        </g>
      </g>
    </g>
  </g>
</svg>